# xmcd
#
# Track frame offsets:
#	150
#	11550
#	28150
#	40151
#	54106
#	68944
#	80348
#	92124
#	105217
#	117557
#	130985
#	141787
#	156641
#	167291
#	181777
#	195126
#	212793
#	225468
#	236282
#	249261
#	262840
#
# Disc length: 3764 seconds
#
# Revision: 0
# Processed by: cddbd v1.5.2PL0 Copyright (c) Steve Scherf et al.
# Submitted via: audiograbber 1.83.01
#
DISCID=040eb215
DTITLE=Glen Campbell - Glen Campbell's Twenyt Golden Greats
DYEAR=1978
DGENRE=Country and Western
TTITLE0=All I Have To Do Is Dream
TTITLE1=Both Sides Now
TTITLE2=By The Time I get To Phoenix
TTITLE3=Country Boy
TTITLE4=Don't Pull Your Love/Then You
TTITLE5=Dreams Of The Everyday Housewife
TTITLE6=Galvaston
TTITLE7=Gentle On My Mind
TTITLE8=Give Me Back That Old Familiar Feeling
TTITLE9=Honey Come Back
TTITLE10=It's Only Make Believe
TTITLE11=One Last Time
TTITLE12=Reason To Believe
TTITLE13=Rhinestone Cowboy
TTITLE14=Southern Nights
TTITLE15=The Last Thing On My Mind
TTITLE16=Too Many Mornings
TTITLE17=Try A Little Kindness
TTITLE18=Where's The Playground Susie
TTITLE19=Witcha Lineman
TTITLE20=Amazing Grace
EXTD=
EXTT0=
EXTT1=
EXTT2=
EXTT3=
EXTT4=
EXTT5=
EXTT6=
EXTT7=
EXTT8=
EXTT9=
EXTT10=
EXTT11=
EXTT12=
EXTT13=
EXTT14=
EXTT15=
EXTT16=
EXTT17=
EXTT18=
EXTT19=
EXTT20=
PLAYORDER=
